<svg width="35" height="35" viewBox="0 0 35 35" fill="none" xmlns="http://www.w3.org/2000/svg">
<path fill-rule="evenodd" clip-rule="evenodd" d="M21.875 2.91669C22.387 2.9167 22.8899 3.05147 23.3333 3.30746C23.7767 3.56346 24.1449 3.93164 24.4008 4.37502H26.25C27.0236 4.37502 27.7654 4.68231 28.3124 5.22929C28.8594 5.77627 29.1667 6.51814 29.1667 7.29169V24.7917C29.1667 26.7256 28.3984 28.5802 27.031 29.9477C25.6635 31.3151 23.8089 32.0834 21.875 32.0834H8.75C7.97645 32.0834 7.23459 31.7761 6.68761 31.2291C6.14063 30.6821 5.83334 29.9402 5.83334 29.1667V7.29169C5.83334 6.51814 6.14063 5.77627 6.68761 5.22929C7.23459 4.68231 7.97645 4.37502 8.75 4.37502H10.5992C10.8552 3.93164 11.2233 3.56346 11.6667 3.30746C12.1101 3.05147 12.613 2.9167 13.125 2.91669H21.875ZM21.6183 13.6777L15.4321 19.8654L13.3685 17.8019C13.0935 17.5362 12.7251 17.3893 12.3428 17.3926C11.9604 17.3959 11.5946 17.5493 11.3242 17.8197C11.0538 18.09 10.9005 18.4558 10.8971 18.8382C10.8938 19.2206 11.0408 19.5889 11.3065 19.864L14.296 22.855C14.445 23.0041 14.6219 23.1223 14.8166 23.203C15.0112 23.2836 15.2199 23.3251 15.4306 23.3251C15.6414 23.3251 15.85 23.2836 16.0447 23.203C16.2394 23.1223 16.4162 23.0041 16.5652 22.855L23.6819 15.7398C23.8173 15.6043 23.9247 15.4435 23.9979 15.2665C24.0711 15.0895 24.1088 14.8998 24.1087 14.7083C24.1087 14.5167 24.0709 14.327 23.9975 14.1501C23.9241 13.9732 23.8166 13.8124 23.6812 13.677C23.5457 13.5416 23.3848 13.4342 23.2078 13.361C23.0308 13.2877 22.8411 13.2501 22.6496 13.2501C22.458 13.2502 22.2684 13.288 22.0914 13.3614C21.9145 13.4347 21.7537 13.5422 21.6183 13.6777ZM21.1458 5.83335H13.8542C13.6835 5.8333 13.5182 5.8931 13.3871 6.00236C13.256 6.11161 13.1674 6.2634 13.1367 6.43127L13.125 6.56252V8.02085C13.1249 8.19152 13.1848 8.35679 13.294 8.4879C13.4033 8.619 13.555 8.70763 13.7229 8.73835L13.8542 8.75002H21.1458C21.3165 8.75008 21.4818 8.69027 21.6129 8.58101C21.744 8.47176 21.8326 8.31998 21.8633 8.1521L21.875 8.02085V6.56252C21.8751 6.39186 21.8153 6.22658 21.706 6.09548C21.5967 5.96437 21.445 5.87574 21.2771 5.84502L21.1458 5.83335Z" fill="#232323"/>
</svg>
